Coordinates
version=1
nRows=17
nColumns=36
inDegrees=yes

Units are S.I. units (second, meters, Newtons, ...)
If the header above contains a line with 'inDegrees', this indicates whether rotational values are in degrees (yes) or radians (no).

endheader
time	pelvis_tilt	pelvis_list	pelvis_rotation	pelvis_tx	pelvis_ty	pelvis_tz	hip_flexion_r	hip_adduction_r	hip_rotation_r	knee_angle_r	knee_angle_r_beta	ankle_angle_r	subtalar_angle_r	mtp_angle_r	hip_flexion_l	hip_adduction_l	hip_rotation_l	knee_angle_l	knee_angle_l_beta	ankle_angle_l	subtalar_angle_l	mtp_angle_l	lumbar_extension	lumbar_bending	lumbar_rotation	arm_flex_r	arm_add_r	arm_rot_r	elbow_flex_r	pro_sup_r	arm_flex_l	arm_add_l	arm_rot_l	elbow_flex_l	pro_sup_l
      5.25000000	     -0.41076889	     -5.15798108	     -3.21604174	      0.29524982	      0.94075134	     -0.17988873	     18.33072962	     -4.91991373	      2.84038261	     30.64913444	      0.53492831	      8.65449804	     -4.20940236	     -7.49999987	      4.92405498	      0.22372468	      9.71560216	     16.76949660	      0.29268293	     17.39935768	      0.66636520	     -7.49999987	    -10.02023541	      1.54891880	     -0.93418419	     24.72567771	     -4.46274523	     40.08322239	    126.07754732	     82.82026106	     34.11100996	    -10.37088586	     45.58829683	    114.11447509	     79.60909453
      5.26666670	     -0.68051208	     -4.78326703	     -3.30815545	      0.29678132	      0.93435901	     -0.17909410	     17.36564097	     -5.18845328	      2.88558145	     30.60095238	      0.53408737	      9.66850909	     -4.85609491	     -7.49999987	      5.31098082	      0.64011292	      9.42820799	     17.27817665	      0.30156107	     17.31118746	      0.64210590	     -7.49999987	     -9.34592876	      0.94654806	     -1.08331097	     24.15952300	     -4.20762652	     39.45955139	    126.61208710	     82.81853483	     33.88441754	    -10.06663135	     43.55298537	    112.68776077	     79.49092210
      5.28333330	     -0.91363713	     -4.40900636	     -3.29259500	      0.29603622	      0.93763115	     -0.17926834	     16.21733124	     -5.48744872	      2.75111801	     29.94642841	      0.52266377	     10.75247486	     -5.18273322	     -7.49999987	      5.47762561	      1.00310052	      9.13767811	     17.40864478	      0.30383817	     17.15370124	      0.87299468	     -7.49999987	     -8.79509917	      0.42874249	     -1.25006212	     23.99294327	     -4.10238549	     39.73743686	    127.08794966	     83.13582101	     33.81733608	     -9.89999593	     45.31649574	    113.97757497	     79.92385231
      5.30000000	     -1.09734075	     -3.90359602	     -3.29393021	      0.29661944	      0.93979092	     -0.17885047	     15.17037083	     -5.88912911	      2.59554230	     29.14725613	      0.50871559	     11.49343956	     -5.44992390	     -7.49999987	      5.53631438	      1.45972824	      8.90153990	     17.30840298	      0.30208862	     16.95158315	      1.09410256	     -7.49999987	     -8.57903163	     -0.26274525	     -1.25968464	     23.76422999	     -4.39509474	     39.83029182	    126.84588434	     83.21042197	     33.60330224	     -9.73777886	     44.75513956	    112.93699740	     80.01849788
      5.31666670	     -1.28249152	     -3.53810663	     -3.41182704	      0.30461911	      0.93465883	     -0.17388406	     13.87570588	     -6.03552691	      2.30077647	     27.73839888	      0.48412639	     12.15533912	     -5.35095989	     -7.49999987	      5.54649412	      1.70383697	      8.54296661	     17.34042459	      0.30264750	     16.84035750	      1.32368511	     -7.49999987	     -7.82936392	     -0.82630196	     -1.29599695	     23.07328809	     -4.27687944	     39.51644849	    127.39694891	     83.71917164	     33.18446729	     -9.20244976	     46.38924962	    115.50105766	     80.66427653
      5.33333330	     -1.65757539	     -3.04066039	     -3.50087936	      0.30499439	      0.93925609	     -0.17361625	     12.69110720	     -6.30073900	      1.81994444	     25.98778450	      0.45357240	     12.53918148	     -4.90994290	     -7.49999987	      5.47925085	      2.00076355	      8.18765827	     16.76975516	      0.29268744	     16.47444546	      1.71609691	     -7.49999987	     -7.25052823	     -1.48957531	     -1.33859027	     22.15065570	     -4.21834508	     39.49458137	    127.11701368	     83.85319642	     32.52657766	     -9.13483765	     48.67818086	    117.15199650	     81.20553061
      5.35000000	     -1.89971744	     -2.54998198	     -3.63289051	      0.30551977	      0.93280387	     -0.17283226	     11.62370584	     -6.59417447	      1.56553564	     24.46341061	      0.42696706	     12.49128320	     -4.85602094	     -7.49999987	      5.24470882	      2.35834204	      7.76863817	     16.06538028	      0.28039378	     16.16130842	      1.98669606	     -7.49999987	     -6.79355426	     -2.04823636	     -1.36261477	     22.08912951	     -4.22044984	     39.69700478	    127.60868272	     84.44559171	     31.77221030	     -8.42155835	     50.89208064	    119.41443566	     81.93272863
      5.36666670	     -3.07175920	     -1.83814594	     -3.93274261	      0.28948024	      0.93236978	     -0.17396309	     12.32743752	     -7.09118775	      1.46013645	     23.51428364	      0.41040167	     12.72195468	     -4.74842616	     -7.49999987	      6.69625394	      2.93848483	      7.33048406	     16.08009994	      0.28065069	     16.20031685	      2.65313663	     -7.49999987	     -6.21156172	     -2.68457332	     -1.59694856	     22.17832750	     -4.20448594	     40.39264456	    127.33810206	     84.68471685	     32.75979913	     -9.21071430	     55.66831005	    122.10442970	     82.69971071
      5.38333330	     -3.86417627	     -1.25446415	     -4.24497784	      0.29115288	      0.92899075	     -0.17264375	     12.71115048	     -7.47076495	      1.30100793	     22.48085000	      0.39236485	     12.72774482	     -4.76351872	     -7.49999987	      7.46334769	      3.37649883	      6.81843667	     15.46201356	      0.26986305	     16.05005253	      2.96969798	     -7.49999987	     -5.86103817	     -3.24355590	     -1.80918529	     22.17550752	     -4.12295629	     40.05174241	    127.27147571	     84.83184458	     32.99152081	     -9.66586123	     59.78935410	    124.21489984	     83.36051285
      5.40000000	     -4.30743303	     -0.77955883	     -4.53634358	      0.29912186	      0.93094054	     -0.16755608	     11.94754029	     -7.70772685	      0.85890792	     20.24204233	      0.35329029	     12.60456353	     -4.23151300	     -7.49999987	      7.15045887	      3.62694092	      6.35555937	     13.79685078	      0.24080047	     15.14893766	      3.37569782	     -7.49999987	     -5.62016590	     -4.02736618	     -1.53517499	     21.04098712	     -3.88552885	     38.46765995	    126.43083054	     84.75972645	     32.91468510	    -11.00075222	     57.76626406	    122.55736777	     83.42120024
      5.41666670	     -5.07092485	     -0.35851042	     -5.00034866	      0.28960045	      0.92933147	     -0.16478728	     12.00066749	     -7.85183595	      0.61136904	     18.48635950	      0.32264784	     12.40334511	     -3.75262472	     -7.49999987	      7.64681844	      3.82043919	      5.79755614	     12.72765383	      0.22213947	     14.71826976	      3.77523096	     -7.49999987	     -5.34795409	     -4.61673749	     -1.28337819	     20.88143136	     -3.47616885	     37.78911727	    126.58630136	     84.76338939	     33.42283092	    -12.49149784	     55.83445111	    121.57248617	     83.27569371
      5.43333330	     -5.42678835	     -0.11247194	     -5.41029146	      0.28776949	      0.92479512	     -0.15786330	     11.62299687	     -7.77664536	      0.33602200	     16.97053505	      0.29619171	     12.34601256	     -3.59671959	     -7.49999987	      7.71850550	      3.81333376	      5.57033910	     11.85995261	      0.20699522	     14.48603772	      3.97551103	     -7.49999987	     -5.17739199	     -5.04416197	     -0.92101592	     21.23895849	     -2.75663016	     37.80106007	    127.36965201	     85.21058177	     33.96589468	    -12.61432540	     55.48183570	    122.41166150	     83.64664442
      5.45000000	     -6.40343611	      0.24841360	     -6.32846211	      0.29524705	      0.92476964	     -0.15247936	     11.84883948	     -7.67473434	      0.11741868	     15.16091312	      0.26460785	     12.06123846	     -2.44583441	     -7.49999987	      8.17215392	      3.67372372	      4.41473874	     10.75433942	      0.18769863	     14.02154546	      4.94073380	     -7.49999987	     -3.56597307	     -5.47956998	     -0.84668803	     20.28799100	     -1.41928317	     37.91044757	    126.90108800	     85.30021138	     32.68520270	    -13.19791655	     53.79453840	    123.00617813	     83.14754628
      5.46666670	     -7.08871107	      0.41311852	     -7.33340690	      0.27941142	      0.91622589	     -0.14647484	     12.63077153	     -7.33008192	      0.18744195	     14.67932984	      0.25620264	     11.77029563	     -2.23825579	     -7.49999987	      9.01255775	      3.41211279	      3.68108578	     10.60913918	      0.18516441	     14.21977255	      5.06765704	     -7.49999987	     -2.99500877	     -5.85896655	     -0.08926853	     20.86171298	     -0.46413649	     37.74585190	    126.75014651	     85.25018432	     33.09760486	    -13.46020269	     53.11340032	    123.61698545	     82.95100291
      5.48333330	     -7.72179602	      0.68355280	     -8.30529803	      0.28527300	      0.91637796	     -0.14201665	     13.23644228	     -7.09721838	      0.20429547	     14.09727393	      0.24604385	     11.57050706	     -2.11115795	     -7.49999987	      9.47742558	      3.15469255	      2.42268037	     10.07901502	      0.17591200	     14.48367266	      5.82256913	     -7.49999987	     -1.88729794	     -6.09902952	      0.71663274	     21.28255328	      0.35547087	     37.75410180	    126.79218163	     85.35597251	     32.18232145	    -13.21723872	     54.40467347	    125.84388297	     82.94507711
      5.50000000	     -8.42463212	      0.90649386	     -9.09839915	      0.28397244	      0.91511590	     -0.13482336	     14.02361304	     -6.73582393	      0.29680068	     13.72151777	      0.23948566	     11.35688950	     -2.06308712	     -7.49999987	     10.17494491	      2.79726687	      1.26459516	      9.84486484	      0.17182531	     14.93597921	      6.83115611	     -7.49999987	     -0.91087661	     -6.43677306	      1.43751329	     20.95683180	      0.95285201	     37.71788800	    126.35588156	     85.48609557	     30.37940508	    -13.79905509	     52.69055610	    125.07508049	     82.65279135
      5.51666670	     -8.56649266	      1.07367640	     -9.74798431	      0.29151622	      0.92247012	     -0.13725155	     13.66922542	     -6.53901919	      0.00508725	     12.65859613	      0.22093418	     11.16744558	     -1.44644608	     -7.49999987	      9.70237969	      2.59042916	      0.56356692	      8.93844852	      0.15600536	     14.66237245	      7.10762897	     -7.49999987	     -0.41994269	     -6.47761490	      1.92635303	     20.96092138	      1.02968904	     38.25387607	    125.96103517	     85.80201608	     28.23217680	    -14.03153042	     55.47509401	    127.00346717	     82.81394894
